<?xml version="1.0" encoding="utf-8"?>
<!-- Generator: Adobe Illustrator 21.0.0, SVG Export Plug-In . SVG Version: 6.00 Build 0)  -->
<svg version="1.1" id="图层_1" xmlns="http://www.w3.org/2000/svg" xmlns:xlink="http://www.w3.org/1999/xlink" x="0px" y="0px"
	 viewBox="0 0 125.5 108.6" style="enable-background:new 0 0 125.5 108.6;" xml:space="preserve">
<style type="text/css">
	.st0{fill:#402810;}
	.st1{fill:#6E4B2A;}
	.st2{fill:#134B28;}
	.st3{fill:#E71F19;}
	.st4{fill:#040000;}
	.st5{fill:#8D6F3E;}
	.st6{fill:#90713E;}
	.st7{fill:none;}
	.st8{fill:#6A401D;stroke:#412911;stroke-width:2;stroke-miterlimit:10;}
	.st9{fill:#050102;}
	.st10{fill:#901D22;}
	.st11{fill:#4B2C13;}
	.st12{fill:#FFFFFF;}
	.st13{fill:#D6D6D6;}
	.st14{fill:#D7231A;}
	.st15{fill:#323E48;}
	.st16{fill:#333333;}
	.st17{fill:#EDEDED;}
	.st18{fill:#58442D;}
</style>
<g>
	<g id="XMLID_24_">
		<g>
			<path class="st1" d="M125.5,24.8l-0.6,1.6c-0.3,0.7-0.6,1.3-0.9,1.9c-2.8,5.1-8.3,8.3-14.3,8.3h-27V26.2H44.2v10.3h-0.6h-8.5v0
				H15.8c-6,0-11.5-3.2-14.3-8.3c-0.3-0.6-0.7-1.3-0.9-1.9L0,24.7l8.4-3.2L9,23.1c0.1,0.3,0.2,0.6,0.4,0.8c1.2,2.2,3.7,3.6,6.4,3.6
				h19.3V9.1h-7.3V0h16.9v4.3h37.9V0h16.9v9.1h-7.8v18.5h18c2.7,0,5.1-1.4,6.4-3.6c0.1-0.3,0.3-0.5,0.4-0.8l0.6-1.6L125.5,24.8z
				 M82.6,17.2v-3.8H44.2v3.8H82.6z"/>
			<path class="st1" d="M117.1,38V47h0h-12.3v61.6h-9.1V98.5H30v10.2h-9.1V47h-11V38h33.7V47H30v42.3h15.4V54.3h34.7v35.1h15.6V47
				H83.4V38h26.2H117.1z M71,89.4v-26H54.5v26H71z"/>
		</g>
	</g>
</g>
</svg>
